<svg xmlns="http://www.w3.org/2000/svg" xmlns:xlink="http://www.w3.org/1999/xlink" width="250" zoomAndPan="magnify" viewBox="0 0 187.5 187.499992" height="250" preserveAspectRatio="xMidYMid meet" version="1.0"><defs><g/><clipPath id="510551451e"><path d="M 34.203125 28.878906 L 153.136719 28.878906 L 153.136719 147.8125 L 34.203125 147.8125 Z M 34.203125 28.878906 " clip-rule="nonzero"/></clipPath><clipPath id="9308795ea3"><path d="M 0 48 L 187 48 L 187 93 L 0 93 Z M 0 48 " clip-rule="nonzero"/></clipPath></defs><g clip-path="url(#510551451e)"><path fill="#92875b" d="M 153.03125 63.609375 L 118.40625 28.984375 C 118.339844 28.917969 118.25 28.878906 118.15625 28.878906 L 69.183594 28.878906 C 69.089844 28.878906 69.003906 28.917969 68.933594 28.984375 L 34.308594 63.609375 C 34.242188 63.675781 34.203125 63.765625 34.203125 63.859375 L 34.203125 112.828125 C 34.203125 112.921875 34.242188 113.011719 34.308594 113.078125 L 68.933594 147.703125 C 69.003906 147.769531 69.09375 147.808594 69.183594 147.808594 L 118.15625 147.808594 C 118.25 147.808594 118.335938 147.769531 118.40625 147.703125 L 153.03125 113.078125 C 153.097656 113.011719 153.136719 112.921875 153.136719 112.828125 L 153.136719 63.859375 C 153.136719 63.765625 153.097656 63.675781 153.03125 63.609375 Z M 152.429688 112.683594 L 118.007812 147.101562 L 69.332031 147.101562 L 34.914062 112.683594 L 34.914062 64.007812 L 69.332031 29.585938 L 118.007812 29.585938 L 152.429688 64.007812 Z M 152.429688 112.683594 " fill-opacity="1" fill-rule="nonzero"/></g><path fill="#92875b" d="M 116.769531 32.226562 L 70.570312 32.226562 C 70.476562 32.226562 70.390625 32.261719 70.320312 32.332031 L 37.652344 64.996094 C 37.585938 65.0625 37.550781 65.152344 37.550781 65.246094 L 37.550781 111.445312 C 37.550781 111.539062 37.585938 111.628906 37.652344 111.695312 L 70.320312 144.363281 C 70.390625 144.429688 70.480469 144.46875 70.570312 144.46875 L 116.769531 144.46875 C 116.867188 144.46875 116.953125 144.429688 117.019531 144.363281 L 149.6875 111.695312 C 149.753906 111.628906 149.792969 111.535156 149.792969 111.445312 L 149.792969 65.246094 C 149.792969 65.152344 149.753906 65.0625 149.6875 64.996094 L 117.019531 32.328125 C 116.953125 32.261719 116.863281 32.226562 116.769531 32.226562 Z M 149.082031 111.296875 L 116.621094 143.757812 L 70.71875 143.757812 L 38.261719 111.296875 L 38.261719 65.394531 L 70.71875 32.933594 L 116.621094 32.933594 L 149.082031 65.394531 Z M 149.082031 111.296875 " fill-opacity="1" fill-rule="nonzero"/><g fill="#ffb3e1" fill-opacity="1"><g transform="translate(8.755981, 85.907549)"><g><path d="M 1.9375 -2.5625 C 2.632812 -2.582031 3.160156 -2.660156 3.515625 -2.796875 C 3.878906 -2.941406 4.164062 -3.25 4.375 -3.71875 C 4.582031 -4.1875 4.6875 -4.921875 4.6875 -5.921875 L 4.6875 -20.765625 C 4.6875 -22.210938 4.738281 -23.375 4.84375 -24.25 L 1.9375 -24.125 L 1.9375 -27.109375 L 13.046875 -27.109375 L 13.046875 -24.5625 C 12.347656 -24.53125 11.816406 -24.441406 11.453125 -24.296875 C 11.097656 -24.160156 10.816406 -23.859375 10.609375 -23.390625 C 10.398438 -22.929688 10.296875 -22.195312 10.296875 -21.1875 L 10.296875 -15.296875 L 13.09375 -15.296875 L 16.078125 -20.375 C 17.316406 -22.539062 18.191406 -23.832031 18.703125 -24.25 L 18.703125 -24.28125 C 18.140625 -24.226562 17.648438 -24.195312 17.234375 -24.1875 C 16.816406 -24.175781 16.492188 -24.15625 16.265625 -24.125 L 16.265625 -27.109375 L 25.765625 -27.109375 L 25.765625 -24.5625 C 24.648438 -24.507812 23.609375 -24.222656 22.640625 -23.703125 C 21.671875 -23.191406 20.707031 -22.160156 19.75 -20.609375 L 16.03125 -14.640625 L 16.03125 -14.609375 C 17.019531 -14.015625 17.832031 -13.265625 18.46875 -12.359375 L 22.46875 -6.734375 C 24.375 -4.023438 26.066406 -2.632812 27.546875 -2.5625 L 27.546875 0 L 21.578125 0 C 21.296875 -0.0195312 20.734375 -0.476562 19.890625 -1.375 C 19.046875 -2.269531 18.34375 -3.128906 17.78125 -3.953125 L 13.9375 -9.53125 C 13.582031 -10.039062 13.195312 -10.554688 12.78125 -11.078125 C 12.363281 -11.597656 12.003906 -11.972656 11.703125 -12.203125 L 10.296875 -12.203125 L 10.296875 -6.359375 C 10.296875 -4.910156 10.242188 -3.742188 10.140625 -2.859375 C 10.972656 -2.941406 11.941406 -2.984375 13.046875 -2.984375 L 13.046875 0 L 1.9375 0 Z M 1.9375 -2.5625 "/></g></g></g><g fill="#ffb3e1" fill-opacity="1"><g transform="translate(36.325488, 85.907549)"><g><path d="M 1.9375 -2.5625 C 2.632812 -2.582031 3.160156 -2.660156 3.515625 -2.796875 C 3.878906 -2.941406 4.164062 -3.25 4.375 -3.71875 C 4.582031 -4.1875 4.6875 -4.921875 4.6875 -5.921875 L 4.6875 -20.765625 C 4.6875 -22.210938 4.738281 -23.375 4.84375 -24.25 L 1.9375 -24.125 L 1.9375 -27.109375 L 13.203125 -27.15625 C 16.429688 -27.15625 19.160156 -26.515625 21.390625 -25.234375 C 23.628906 -23.953125 25.296875 -22.289062 26.390625 -20.25 C 27.492188 -18.21875 28.046875 -16.078125 28.046875 -13.828125 C 28.046875 -11.554688 27.519531 -9.367188 26.46875 -7.265625 C 25.425781 -5.160156 23.773438 -3.421875 21.515625 -2.046875 C 19.253906 -0.679688 16.421875 0 13.015625 0 L 1.9375 0 Z M 13.828125 -2.828125 C 15.640625 -2.828125 17.148438 -3.300781 18.359375 -4.25 C 19.578125 -5.207031 20.472656 -6.453125 21.046875 -7.984375 C 21.628906 -9.523438 21.921875 -11.203125 21.921875 -13.015625 C 21.921875 -16.941406 21.117188 -19.847656 19.515625 -21.734375 C 17.921875 -23.617188 15.664062 -24.5625 12.75 -24.5625 C 11.863281 -24.5625 11.234375 -24.335938 10.859375 -23.890625 C 10.484375 -23.453125 10.296875 -22.578125 10.296875 -21.265625 L 10.296875 -6.359375 C 10.296875 -4.910156 10.242188 -3.742188 10.140625 -2.859375 C 10.273438 -2.890625 10.523438 -2.90625 10.890625 -2.90625 L 12.546875 -2.859375 C 12.878906 -2.835938 13.304688 -2.828125 13.828125 -2.828125 Z M 13.828125 -2.828125 "/></g></g></g><g fill="#ffb3e1" fill-opacity="1"><g transform="translate(65.714893, 85.907549)"><g><path d="M 1.9375 -2.5625 C 2.632812 -2.582031 3.160156 -2.660156 3.515625 -2.796875 C 3.878906 -2.941406 4.164062 -3.25 4.375 -3.71875 C 4.582031 -4.1875 4.6875 -4.921875 4.6875 -5.921875 L 4.6875 -20.765625 C 4.6875 -22.210938 4.738281 -23.375 4.84375 -24.25 L 1.9375 -24.125 L 1.9375 -27.109375 L 12.9375 -27.1875 C 16.476562 -27.21875 19.207031 -26.597656 21.125 -25.328125 C 23.050781 -24.066406 24.015625 -22.015625 24.015625 -19.171875 C 24.015625 -17.390625 23.4375 -15.804688 22.28125 -14.421875 C 21.132812 -13.046875 19.441406 -12.035156 17.203125 -11.390625 L 17.203125 -11.34375 C 17.660156 -11.164062 18.132812 -10.847656 18.625 -10.390625 C 19.125 -9.941406 19.539062 -9.445312 19.875 -8.90625 L 21.6875 -6.203125 C 22.570312 -4.828125 23.300781 -3.878906 23.875 -3.359375 C 24.457031 -2.847656 25.175781 -2.582031 26.03125 -2.5625 L 26.03125 0 L 19.640625 0 C 19.203125 -0.3125 18.757812 -0.753906 18.3125 -1.328125 C 17.875 -1.910156 17.375 -2.679688 16.8125 -3.640625 L 13.9375 -8.296875 C 13.289062 -9.328125 12.75 -10.070312 12.3125 -10.53125 L 10.296875 -10.53125 L 10.296875 -6.390625 C 10.296875 -4.921875 10.242188 -3.742188 10.140625 -2.859375 C 10.972656 -2.941406 12.070312 -2.984375 13.4375 -2.984375 L 13.4375 0 L 1.9375 0 Z M 12.15625 -13.328125 C 14.28125 -13.328125 15.8125 -13.796875 16.75 -14.734375 C 17.695312 -15.679688 18.171875 -17.160156 18.171875 -19.171875 C 18.171875 -21.316406 17.617188 -22.738281 16.515625 -23.4375 C 15.421875 -24.132812 14.21875 -24.484375 12.90625 -24.484375 C 12 -24.484375 11.335938 -24.285156 10.921875 -23.890625 C 10.503906 -23.503906 10.296875 -22.679688 10.296875 -21.421875 L 10.296875 -13.484375 C 11.078125 -13.378906 11.695312 -13.328125 12.15625 -13.328125 Z M 12.15625 -13.328125 "/></g></g></g><g fill="#ffb3e1" fill-opacity="1"><g transform="translate(92.277645, 85.907549)"><g><path d="M 0.15625 -2.671875 C 0.820312 -2.671875 1.378906 -2.863281 1.828125 -3.25 C 2.285156 -3.632812 2.644531 -4.101562 2.90625 -4.65625 C 3.164062 -5.21875 3.488281 -6.03125 3.875 -7.09375 L 11.421875 -27.8125 L 14.140625 -27.8125 L 22.390625 -6.703125 C 22.597656 -6.179688 22.816406 -5.539062 23.046875 -4.78125 C 23.273438 -4.019531 23.414062 -3.378906 23.46875 -2.859375 C 24.320312 -2.941406 25.070312 -2.984375 25.71875 -2.984375 L 25.71875 0 L 15.296875 0 L 15.296875 -2.5625 C 16.535156 -2.5625 17.15625 -3.078125 17.15625 -4.109375 C 17.15625 -4.617188 17.015625 -5.238281 16.734375 -5.96875 L 15.953125 -8.09375 L 7.546875 -7.9375 L 6.9375 -6.125 C 6.851562 -5.914062 6.675781 -5.445312 6.40625 -4.71875 C 6.132812 -4 5.894531 -3.421875 5.6875 -2.984375 C 6.519531 -3.054688 7.4375 -3.09375 8.4375 -3.09375 L 8.4375 0 L 0.15625 0 Z M 14.984375 -10.84375 L 13.203125 -15.6875 C 12.453125 -17.800781 11.960938 -19.570312 11.734375 -21 L 11.703125 -21 C 11.285156 -19.132812 10.804688 -17.425781 10.265625 -15.875 L 8.515625 -10.84375 Z M 14.984375 -10.84375 "/></g></g></g><g fill="#ffb3e1" fill-opacity="1"><g transform="translate(118.143425, 85.907549)"><g><path d="M 10.578125 -12.359375 C 10.191406 -13.265625 9.734375 -14.53125 9.203125 -16.15625 C 8.671875 -17.78125 8.222656 -19.429688 7.859375 -21.109375 L 7.828125 -21.109375 C 7.898438 -18.753906 7.9375 -16.613281 7.9375 -14.6875 L 7.9375 -13.359375 L 7.90625 -6.359375 C 7.90625 -4.753906 7.835938 -3.585938 7.703125 -2.859375 C 8.554688 -2.941406 9.539062 -2.984375 10.65625 -2.984375 L 10.65625 0 L 1.828125 0 L 1.828125 -2.5625 C 2.515625 -2.582031 3.039062 -2.660156 3.40625 -2.796875 C 3.769531 -2.941406 4.054688 -3.25 4.265625 -3.71875 C 4.472656 -4.1875 4.578125 -4.921875 4.578125 -5.921875 L 4.796875 -20.765625 C 4.847656 -22.648438 4.898438 -23.8125 4.953125 -24.25 L 2.046875 -24.125 L 2.046875 -27.109375 L 10.609375 -27.109375 L 16.46875 -12.125 C 16.851562 -11.113281 17.265625 -10 17.703125 -8.78125 C 18.140625 -7.570312 18.445312 -6.644531 18.625 -6 L 18.671875 -6 C 18.773438 -6.257812 19.054688 -7.0625 19.515625 -8.40625 C 19.878906 -9.46875 20.203125 -10.367188 20.484375 -11.109375 L 26.5 -27.109375 L 35.4375 -27.109375 L 35.4375 -24.5625 C 34.738281 -24.53125 34.195312 -24.441406 33.8125 -24.296875 C 33.425781 -24.160156 33.128906 -23.859375 32.921875 -23.390625 C 32.710938 -22.929688 32.625 -22.195312 32.65625 -21.1875 L 33.234375 -6.359375 C 33.304688 -5.035156 33.253906 -3.867188 33.078125 -2.859375 C 33.929688 -2.941406 34.910156 -2.984375 36.015625 -2.984375 L 36.015625 0 L 25.25 0 L 25.25 -2.5625 C 25.945312 -2.582031 26.484375 -2.660156 26.859375 -2.796875 C 27.234375 -2.941406 27.523438 -3.25 27.734375 -3.71875 C 27.941406 -4.1875 28.03125 -4.921875 28 -5.921875 L 27.6875 -14.140625 L 27.625 -15.609375 C 27.488281 -18.117188 27.410156 -19.863281 27.390625 -20.84375 L 27.34375 -20.84375 L 19.40625 0.390625 L 15.796875 0.390625 Z M 10.578125 -12.359375 "/></g></g></g><g fill="#ffb3e1" fill-opacity="1"><g transform="translate(155.780448, 85.907549)"><g><path d="M 0.15625 -2.671875 C 0.820312 -2.671875 1.378906 -2.863281 1.828125 -3.25 C 2.285156 -3.632812 2.644531 -4.101562 2.90625 -4.65625 C 3.164062 -5.21875 3.488281 -6.03125 3.875 -7.09375 L 11.421875 -27.8125 L 14.140625 -27.8125 L 22.390625 -6.703125 C 22.597656 -6.179688 22.816406 -5.539062 23.046875 -4.78125 C 23.273438 -4.019531 23.414062 -3.378906 23.46875 -2.859375 C 24.320312 -2.941406 25.070312 -2.984375 25.71875 -2.984375 L 25.71875 0 L 15.296875 0 L 15.296875 -2.5625 C 16.535156 -2.5625 17.15625 -3.078125 17.15625 -4.109375 C 17.15625 -4.617188 17.015625 -5.238281 16.734375 -5.96875 L 15.953125 -8.09375 L 7.546875 -7.9375 L 6.9375 -6.125 C 6.851562 -5.914062 6.675781 -5.445312 6.40625 -4.71875 C 6.132812 -4 5.894531 -3.421875 5.6875 -2.984375 C 6.519531 -3.054688 7.4375 -3.09375 8.4375 -3.09375 L 8.4375 0 L 0.15625 0 Z M 14.984375 -10.84375 L 13.203125 -15.6875 C 12.453125 -17.800781 11.960938 -19.570312 11.734375 -21 L 11.703125 -21 C 11.285156 -19.132812 10.804688 -17.425781 10.265625 -15.875 L 8.515625 -10.84375 Z M 14.984375 -10.84375 "/></g></g></g><g clip-path="url(#9308795ea3)"><path stroke-linecap="butt" transform="matrix(1.033857, 0, 0, 1.033857, -35.731455, 48.010951)" fill="none" stroke-linejoin="miter" d="M 43.251469 32.532143 C 43.920233 32.505694 44.430307 32.426349 44.777913 32.294108 C 45.129297 32.15431 45.408894 31.855822 45.609145 31.406201 C 45.809396 30.952802 45.911411 30.242476 45.911411 29.263889 L 45.911411 14.925136 C 45.911411 13.523377 45.960529 12.397435 46.058766 11.55109 L 43.251469 11.660662 L 43.251469 8.781576 L 53.997032 8.781576 L 53.997032 11.248824 C 53.32449 11.275272 52.814415 11.354617 52.459253 11.494415 C 52.111647 11.630435 51.835829 11.921366 51.635577 12.374765 C 51.442883 12.824386 51.344646 13.534712 51.344646 14.505742 L 51.344646 20.20346 L 54.031037 20.20346 L 56.921457 15.299191 C 58.119187 13.198441 58.965533 11.947814 59.464272 11.55109 L 59.464272 11.513307 C 58.916414 11.562425 58.440345 11.592652 58.039842 11.603987 C 57.643118 11.6191 57.329517 11.637992 57.106595 11.660662 L 57.106595 8.781576 L 66.287931 8.781576 L 66.287931 11.248824 C 65.214886 11.297942 64.209851 11.57376 63.269048 12.072499 C 62.335801 12.571238 61.406332 13.572495 60.480642 15.072491 L 56.887452 20.841997 L 56.887452 20.879781 C 57.832034 21.454086 58.617926 22.175747 59.245129 23.048541 L 63.10658 28.477997 C 64.950403 31.100156 66.586419 32.452798 68.00707 32.532143 L 68.00707 34.99939 L 62.237564 34.99939 C 61.961746 34.97672 61.417667 34.534656 60.609105 33.673197 C 59.796765 32.807961 59.116666 31.976728 58.568808 31.175723 L 54.866047 25.780271 C 54.510885 25.281532 54.133052 24.782793 53.728771 24.29161 C 53.335825 23.789093 52.988219 23.426373 52.689731 23.203452 L 51.344646 23.203452 L 51.344646 28.85583 C 51.344646 30.257589 51.291749 31.379753 51.189735 32.229876 C 51.986962 32.15431 52.923987 32.120305 53.997032 32.120305 L 53.997032 34.99939 L 43.251469 34.99939 Z M 69.915126 32.532143 C 70.587668 32.505694 71.097742 32.426349 71.445348 32.294108 C 71.796733 32.15431 72.076329 31.855822 72.27658 31.406201 C 72.476832 30.952802 72.578847 30.242476 72.578847 29.263889 L 72.578847 14.925136 C 72.578847 13.523377 72.627965 12.397435 72.722423 11.55109 L 69.915126 11.660662 L 69.915126 8.781576 L 80.819379 8.743793 C 83.940277 8.743793 86.581328 9.363438 88.738753 10.598951 C 90.896178 11.830686 92.505746 13.436475 93.567456 15.408762 C 94.629166 17.381049 95.158132 19.451573 95.158132 21.627889 C 95.158132 23.823098 94.651836 25.938961 93.639244 27.97548 C 92.634209 30.011998 91.035976 31.693354 88.848325 33.015769 C 86.664451 34.338183 83.925164 34.99939 80.626684 34.99939 L 69.915126 34.99939 Z M 81.412576 32.263881 C 83.161942 32.263881 84.624155 31.806704 85.791658 30.884792 C 86.970496 29.959102 87.839511 28.750037 88.398704 27.261376 C 88.961675 25.776493 89.241271 24.159369 89.241271 22.41756 C 89.241271 18.616562 88.466714 15.805487 86.917599 13.984333 C 85.368485 12.159401 83.18839 11.248824 80.369758 11.248824 C 79.515856 11.248824 78.911323 11.464188 78.548604 11.891139 C 78.189663 12.310534 78.012082 13.156879 78.012082 14.430176 L 78.012082 28.85583 C 78.012082 30.257589 77.959185 31.379753 77.853392 32.229876 C 77.981855 32.203428 78.21989 32.192093 78.567496 32.192093 L 80.177063 32.229876 C 80.501999 32.252546 80.913837 32.263881 81.412576 32.263881 Z M 98.343262 32.532143 C 99.015804 32.505694 99.5221 32.426349 99.869706 32.294108 C 100.224869 32.15431 100.500687 31.855822 100.704716 31.406201 C 100.904968 30.952802 101.003204 30.242476 101.003204 29.263889 L 101.003204 14.925136 C 101.003204 13.523377 101.052323 12.397435 101.150559 11.55109 L 98.343262 11.660662 L 98.343262 8.781576 L 108.979254 8.706009 C 112.39864 8.683339 115.039691 9.284094 116.898628 10.508272 C 118.765122 11.728671 119.698369 13.708515 119.698369 16.451581 C 119.698369 18.178276 119.139176 19.708499 118.02457 21.042249 C 116.913741 22.379777 115.273947 23.362142 113.105187 23.989344 L 113.105187 24.027127 C 113.55103 24.20093 114.008208 24.510753 114.484277 24.949039 C 114.960346 25.383547 115.360849 25.859616 115.682007 26.384804 L 117.450264 29.010741 C 118.296609 30.333156 118.999378 31.243733 119.562349 31.742472 C 120.121541 32.24499 120.816754 32.505694 121.647986 32.532143 L 121.647986 34.99939 L 115.462864 34.99939 C 115.035913 34.700903 114.608962 34.270173 114.182011 33.710981 C 113.762616 33.14801 113.27899 32.407458 112.731133 31.477989 L 109.95784 26.978001 C 109.330638 25.984301 108.805451 25.26264 108.386056 24.81302 L 106.436439 24.81302 L 106.436439 28.818047 C 106.436439 30.242476 106.383543 31.379753 106.281528 32.229876 C 107.078755 32.15431 108.140465 32.120305 109.46288 32.120305 L 109.46288 34.99939 L 98.343262 34.99939 Z M 108.231145 22.115294 C 110.278998 22.115294 111.756324 21.658116 112.666901 20.751317 C 113.581257 19.836962 114.038434 18.404976 114.038434 16.451581 C 114.038434 14.384836 113.50569 13.013303 112.44398 12.336982 C 111.386048 11.660662 110.218545 11.320612 108.94147 11.320612 C 108.072455 11.320612 107.433918 11.509528 107.033415 11.891139 C 106.636691 12.261416 106.436439 13.058643 106.436439 14.286599 L 106.436439 21.967939 C 107.18077 22.066175 107.777746 22.115294 108.231145 22.115294 Z M 122.309193 32.411236 C 122.959065 32.411236 123.503145 32.226098 123.933874 31.855822 C 124.375938 31.474211 124.719766 31.017033 124.969136 30.480511 C 125.218505 29.943988 125.532106 29.165653 125.909939 28.141726 L 133.209668 8.101477 L 135.835606 8.101477 L 143.807877 28.51578 C 144.011906 29.01452 144.223493 29.634165 144.450192 30.370939 C 144.673114 31.111491 144.812912 31.727359 144.86203 32.229876 C 145.681927 32.15431 146.411144 32.120305 147.038347 32.120305 L 147.038347 34.99939 L 136.957769 34.99939 L 136.957769 32.532143 C 138.159277 32.532143 138.760031 32.029625 138.760031 31.032147 C 138.760031 30.529629 138.620233 29.928875 138.340637 29.229884 L 137.600084 27.170696 L 129.469124 27.318051 L 128.864591 29.08253 C 128.792803 29.282781 128.622778 29.73618 128.362074 30.435171 C 128.101369 31.130383 127.867113 31.693354 127.666861 32.120305 C 128.464089 32.04096 129.351996 31.999398 130.326804 31.999398 L 130.326804 34.99939 L 122.309193 34.99939 Z M 136.655503 24.510753 L 134.936364 19.829406 C 134.210925 17.777774 133.734855 16.06997 133.511934 14.698437 L 133.474151 14.698437 C 133.073648 16.496921 132.608914 18.144271 132.083726 19.644268 L 130.402371 24.510753 Z M 157.406077 23.048541 C 157.032023 22.175747 156.589958 20.951569 156.079884 19.379785 C 155.566032 17.808 155.135302 16.209768 154.78014 14.588865 L 154.742356 14.588865 C 154.821701 16.855862 154.863263 18.930164 154.863263 20.807992 L 154.863263 22.07751 L 154.82548 28.85583 C 154.82548 30.401166 154.761248 31.527107 154.632785 32.229876 C 155.45646 32.15431 156.40482 32.120305 157.477865 32.120305 L 157.477865 34.99939 L 148.946402 34.99939 L 148.946402 32.532143 C 149.615166 32.505694 150.12524 32.426349 150.472846 32.294108 C 150.828009 32.15431 151.100049 31.855822 151.296522 31.406201 C 151.496773 30.952802 151.598788 30.242476 151.598788 29.263889 L 151.825487 14.925136 C 151.874606 13.103983 151.923724 11.978041 151.972842 11.55109 L 149.165545 11.660662 L 149.165545 8.781576 L 157.440082 8.781576 L 163.103795 23.27524 C 163.474071 24.250049 163.874574 25.326872 164.301525 26.50571 C 164.728476 27.673213 165.026964 28.572455 165.196988 29.192101 L 165.234772 29.192101 C 165.336787 28.942731 165.612605 28.168174 166.054669 26.86843 C 166.409832 25.844503 166.723433 24.971709 166.999251 24.24627 L 172.80654 8.781576 L 181.45891 8.781576 L 181.45891 11.248824 C 180.782589 11.275272 180.253624 11.354617 179.875791 11.494415 C 179.501736 11.630435 179.218362 11.921366 179.014332 12.374765 C 178.821637 12.824386 178.734736 13.534712 178.761184 14.505742 L 179.316598 28.85583 C 179.395943 30.129126 179.346825 31.255068 179.173022 32.229876 C 179.992919 32.15431 180.941279 32.120305 182.014324 32.120305 L 182.014324 34.99939 L 171.60881 34.99939 L 171.60881 32.532143 C 172.277574 32.505694 172.795205 32.426349 173.154146 32.294108 C 173.520644 32.15431 173.80024 31.855822 173.996713 31.406201 C 174.196965 30.952802 174.283866 30.242476 174.261196 29.263889 L 173.966487 21.325623 L 173.883363 19.901194 C 173.762457 17.479286 173.690669 15.794152 173.66422 14.842013 L 173.630215 14.842013 L 165.945097 35.373445 L 162.461479 35.373445 Z M 183.729685 32.411236 C 184.383336 32.411236 184.927415 32.226098 185.358144 31.855822 C 185.79643 31.474211 186.144036 31.017033 186.393406 30.480511 C 186.642775 29.943988 186.956377 29.165653 187.334209 28.141726 L 194.633938 8.101477 L 197.256097 8.101477 L 205.232147 28.51578 C 205.432398 29.01452 205.647763 29.634165 205.870684 30.370939 C 206.097384 31.111491 206.233403 31.727359 206.282522 32.229876 C 207.106197 32.15431 207.831636 32.120305 208.458838 32.120305 L 208.458838 34.99939 L 198.382039 34.99939 L 198.382039 32.532143 C 199.583547 32.532143 200.184301 32.029625 200.184301 31.032147 C 200.184301 30.529629 200.044503 29.928875 199.764907 29.229884 L 199.020576 27.170696 L 190.893394 27.318051 L 190.288861 29.08253 C 190.213295 29.282781 190.047048 29.73618 189.786344 30.435171 C 189.521861 31.130383 189.291383 31.693354 189.091132 32.120305 C 189.888359 32.04096 190.776266 31.999398 191.751074 31.999398 L 191.751074 34.99939 L 183.729685 34.99939 Z M 198.079773 24.510753 L 196.360634 19.829406 C 195.635195 17.777774 195.159126 16.06997 194.932426 14.698437 L 194.898421 14.698437 C 194.49414 16.496921 194.033184 18.144271 193.507996 19.644268 L 191.826641 24.510753 Z M 198.079773 24.510753 " stroke="#ff66c4" stroke-width="1.404784" stroke-opacity="1" stroke-miterlimit="4"/></g><g fill="#ffb3e1" fill-opacity="1"><g transform="translate(52.436436, 131.397253)"><g/></g></g><g fill="#ffb3e1" fill-opacity="1"><g transform="translate(62.629619, 131.397253)"><g><path d="M 0.15625 -2.671875 C 0.820312 -2.671875 1.378906 -2.863281 1.828125 -3.25 C 2.285156 -3.632812 2.644531 -4.101562 2.90625 -4.65625 C 3.164062 -5.21875 3.488281 -6.03125 3.875 -7.09375 L 11.421875 -27.8125 L 14.140625 -27.8125 L 22.390625 -6.703125 C 22.597656 -6.179688 22.816406 -5.539062 23.046875 -4.78125 C 23.273438 -4.019531 23.414062 -3.378906 23.46875 -2.859375 C 24.320312 -2.941406 25.070312 -2.984375 25.71875 -2.984375 L 25.71875 0 L 15.296875 0 L 15.296875 -2.5625 C 16.535156 -2.5625 17.15625 -3.078125 17.15625 -4.109375 C 17.15625 -4.617188 17.015625 -5.238281 16.734375 -5.96875 L 15.953125 -8.09375 L 7.546875 -7.9375 L 6.9375 -6.125 C 6.851562 -5.914062 6.675781 -5.445312 6.40625 -4.71875 C 6.132812 -4 5.894531 -3.421875 5.6875 -2.984375 C 6.519531 -3.054688 7.4375 -3.09375 8.4375 -3.09375 L 8.4375 0 L 0.15625 0 Z M 14.984375 -10.84375 L 13.203125 -15.6875 C 12.453125 -17.800781 11.960938 -19.570312 11.734375 -21 L 11.703125 -21 C 11.285156 -19.132812 10.804688 -17.425781 10.265625 -15.875 L 8.515625 -10.84375 Z M 14.984375 -10.84375 "/></g></g></g><g fill="#ffb3e1" fill-opacity="1"><g transform="translate(88.495399, 131.397253)"><g><path d="M 1.9375 -2.5625 C 2.632812 -2.582031 3.160156 -2.660156 3.515625 -2.796875 C 3.878906 -2.941406 4.164062 -3.25 4.375 -3.71875 C 4.582031 -4.1875 4.6875 -4.921875 4.6875 -5.921875 L 4.6875 -20.765625 C 4.6875 -22.210938 4.738281 -23.375 4.84375 -24.25 L 1.9375 -24.125 L 1.9375 -27.109375 L 12.9375 -27.1875 C 16.425781 -27.21875 19.15625 -26.53125 21.125 -25.125 C 23.101562 -23.71875 24.09375 -21.578125 24.09375 -18.703125 C 24.09375 -17.234375 23.675781 -15.828125 22.84375 -14.484375 C 22.019531 -13.140625 20.78125 -12.039062 19.125 -11.1875 C 17.476562 -10.34375 15.46875 -9.878906 13.09375 -9.796875 L 11.578125 -9.765625 L 10.296875 -9.796875 L 10.296875 -6.390625 C 10.296875 -4.921875 10.242188 -3.742188 10.140625 -2.859375 C 10.972656 -2.941406 12.070312 -2.984375 13.4375 -2.984375 L 13.4375 0 L 1.9375 0 Z M 12.046875 -12.59375 C 14.140625 -12.59375 15.671875 -13.113281 16.640625 -14.15625 C 17.609375 -15.195312 18.09375 -16.726562 18.09375 -18.75 C 18.09375 -22.570312 16.363281 -24.484375 12.90625 -24.484375 C 12 -24.484375 11.335938 -24.285156 10.921875 -23.890625 C 10.503906 -23.503906 10.296875 -22.679688 10.296875 -21.421875 L 10.296875 -12.703125 C 10.835938 -12.628906 11.421875 -12.59375 12.046875 -12.59375 Z M 12.046875 -12.59375 "/></g></g></g><g fill="#ffb3e1" fill-opacity="1"><g transform="translate(113.238252, 131.397253)"><g><path d="M 1.9375 -2.5625 C 2.632812 -2.582031 3.160156 -2.660156 3.515625 -2.796875 C 3.878906 -2.941406 4.164062 -3.25 4.375 -3.71875 C 4.582031 -4.1875 4.6875 -4.921875 4.6875 -5.921875 L 4.6875 -20.765625 C 4.6875 -22.210938 4.738281 -23.375 4.84375 -24.25 L 1.9375 -24.125 L 1.9375 -27.109375 L 12.9375 -27.1875 C 16.425781 -27.21875 19.15625 -26.53125 21.125 -25.125 C 23.101562 -23.71875 24.09375 -21.578125 24.09375 -18.703125 C 24.09375 -17.234375 23.675781 -15.828125 22.84375 -14.484375 C 22.019531 -13.140625 20.78125 -12.039062 19.125 -11.1875 C 17.476562 -10.34375 15.46875 -9.878906 13.09375 -9.796875 L 11.578125 -9.765625 L 10.296875 -9.796875 L 10.296875 -6.390625 C 10.296875 -4.921875 10.242188 -3.742188 10.140625 -2.859375 C 10.972656 -2.941406 12.070312 -2.984375 13.4375 -2.984375 L 13.4375 0 L 1.9375 0 Z M 12.046875 -12.59375 C 14.140625 -12.59375 15.671875 -13.113281 16.640625 -14.15625 C 17.609375 -15.195312 18.09375 -16.726562 18.09375 -18.75 C 18.09375 -22.570312 16.363281 -24.484375 12.90625 -24.484375 C 12 -24.484375 11.335938 -24.285156 10.921875 -23.890625 C 10.503906 -23.503906 10.296875 -22.679688 10.296875 -21.421875 L 10.296875 -12.703125 C 10.835938 -12.628906 11.421875 -12.59375 12.046875 -12.59375 Z M 12.046875 -12.59375 "/></g></g></g><path stroke-linecap="butt" transform="matrix(1.033857, 0, 0, 1.033857, -35.731455, 48.010951)" fill="none" stroke-linejoin="miter" d="M 93.631687 76.413638 C 94.28156 76.413638 94.825639 76.224722 95.260147 75.854446 C 95.698433 75.476613 96.04226 75.019435 96.29163 74.482913 C 96.541 73.94639 96.854601 73.164276 97.232433 72.14035 L 104.532162 52.103879 L 107.1581 52.103879 L 115.130371 72.514404 C 115.334401 73.016922 115.545987 73.632789 115.772687 74.373341 C 115.999386 75.110115 116.135406 75.729761 116.184524 76.2285 C 117.0082 76.156712 117.733638 76.118929 118.360841 76.118929 L 118.360841 79.001792 L 108.280263 79.001792 L 108.280263 76.530766 C 109.481771 76.530766 110.082525 76.032027 110.082525 75.03077 C 110.082525 74.532031 109.942727 73.931277 109.663131 73.228508 L 108.922579 71.173098 L 100.791618 71.316674 L 100.187086 73.081153 C 100.115297 73.285183 99.949051 73.734804 99.684568 74.437573 C 99.423863 75.132785 99.189607 75.691978 98.989356 76.118929 C 99.790361 76.039584 100.67449 76.0018 101.653077 76.0018 L 101.653077 79.001792 L 93.631687 79.001792 Z M 107.981775 68.509377 L 106.258858 63.828029 C 105.533419 61.780176 105.061128 60.068593 104.834428 58.697061 L 104.796645 58.697061 C 104.396142 60.495544 103.931408 62.146674 103.406221 63.642891 L 101.724865 68.509377 Z M 120.378468 76.530766 C 121.047232 76.508096 121.557306 76.428751 121.904912 76.292732 C 122.260075 76.152934 122.535893 75.858224 122.736144 75.404825 C 122.940174 74.955204 123.03841 74.2411 123.03841 73.266291 L 123.03841 58.92376 C 123.03841 57.522001 123.087529 56.399837 123.185765 55.549714 L 120.378468 55.659285 L 120.378468 52.7802 L 131.01446 52.708411 C 134.384728 52.681963 137.025779 53.350727 138.933834 54.710925 C 140.849446 56.067345 141.805363 58.137868 141.805363 60.91116 C 141.805363 62.331812 141.40486 63.692009 140.607633 64.987976 C 139.810406 66.28772 138.608898 67.34943 137.003109 68.173106 C 135.408655 68.993003 133.459038 69.446402 131.161814 69.525747 L 129.707158 69.56353 L 128.471645 69.525747 L 128.471645 72.81667 C 128.471645 74.244878 128.418749 75.382155 128.316734 76.2285 C 129.113961 76.156712 130.175671 76.118929 131.498086 76.118929 L 131.498086 79.001792 L 120.378468 79.001792 Z M 130.153001 66.828021 C 132.178185 66.828021 133.655511 66.321725 134.588757 65.309134 C 135.529561 64.296542 135.998074 62.819216 135.998074 60.873377 C 135.998074 57.174395 134.324275 55.323014 130.976676 55.323014 C 130.103883 55.323014 129.469124 55.51193 129.064843 55.889763 C 128.668118 56.260039 128.471645 57.061045 128.471645 58.285223 L 128.471645 66.71845 C 128.996833 66.790238 129.556025 66.828021 130.153001 66.828021 Z M 144.310394 76.530766 C 144.982936 76.508096 145.489232 76.428751 145.836838 76.292732 C 146.192001 76.152934 146.467819 75.858224 146.671849 75.404825 C 146.8721 74.955204 146.970337 74.2411 146.970337 73.266291 L 146.970337 58.92376 C 146.970337 57.522001 147.019455 56.399837 147.117691 55.549714 L 144.310394 55.659285 L 144.310394 52.7802 L 154.946386 52.708411 C 158.316654 52.681963 160.957705 53.350727 162.86576 54.710925 C 164.781372 56.067345 165.737289 58.137868 165.737289 60.91116 C 165.737289 62.331812 165.340565 63.692009 164.539559 64.987976 C 163.742332 66.28772 162.540824 67.34943 160.938813 68.173106 C 159.340581 68.993003 157.390964 69.446402 155.093741 69.525747 L 153.639085 69.56353 L 152.403572 69.525747 L 152.403572 72.81667 C 152.403572 74.244878 152.350675 75.382155 152.24866 76.2285 C 153.045887 76.156712 154.107597 76.118929 155.430012 76.118929 L 155.430012 79.001792 L 144.310394 79.001792 Z M 154.088706 66.828021 C 156.110111 66.828021 157.591215 66.321725 158.524462 65.309134 C 159.461487 64.296542 159.93 62.819216 159.93 60.873377 C 159.93 57.174395 158.256201 55.323014 154.908603 55.323014 C 154.039587 55.323014 153.40105 55.51193 153.000547 55.889763 C 152.603823 56.260039 152.403572 57.061045 152.403572 58.285223 L 152.403572 66.71845 C 152.928759 66.790238 153.487952 66.828021 154.088706 66.828021 Z M 154.088706 66.828021 " stroke="#ff66c4" stroke-width="1.404784" stroke-opacity="1" stroke-miterlimit="4"/></svg>